<svg width="1301" height="371" viewBox="0 0 1301 371" fill="none" xmlns="http://www.w3.org/2000/svg">
<path d="M78.9492 52.9492H63.207V157.051H78.9492V209.102H63.207V365H0.746094V0.898438H78.9492V52.9492ZM161.977 0.898438H224.438V303.047C224.438 325.898 219.105 342.656 208.188 353.574C197.27 364.492 180.004 370.078 156.898 370.078C133.793 370.078 116.527 364.492 105.609 353.574C94.6914 342.656 89.1055 325.898 89.1055 303.047V0.898438H151.566V312.949H161.977V0.898438ZM234.848 0.898438H328.539V52.9492H313.051V365H250.59V52.9492H234.848V0.898438ZM411.82 0.898438H474.281V303.047C474.281 325.898 468.949 342.656 458.031 353.574C447.113 364.492 429.848 370.078 406.742 370.078C383.637 370.078 366.371 364.492 355.453 353.574C344.535 342.656 338.949 325.898 338.949 303.047V0.898438H401.41V312.949H411.82V0.898438ZM620.023 61.8359V122.773C620.023 159.59 606.82 179.141 580.414 181.934V183.965C606.82 187.773 620.023 208.086 620.023 244.395V365H557.562V209.102H547.152V365H484.691V0.898438H560.102C579.145 1.15234 594.125 6.48438 604.535 16.8945C614.945 27.3047 620.023 42.2852 620.023 61.8359ZM557.562 157.051V52.9492H547.152V157.051H557.562ZM708.637 52.9492H692.895V157.051H708.637V209.102H692.895V312.949H708.637V365H630.434V0.898438H708.637V52.9492ZM853.617 0.898438H916.078V303.047C916.078 325.898 910.746 342.656 899.828 353.574C888.91 364.492 871.645 370.078 848.539 370.078C825.434 370.078 808.168 364.492 797.25 353.574C786.332 342.656 780.746 325.898 780.746 303.047V0.898438H843.207V312.949H853.617V0.898438ZM1061.82 0.898438H1124.28V365H1004.69L992.25 47.8711H988.949V365H926.488V0.898438H1046.33L1058.77 318.281H1061.82V0.898438ZM1134.69 365V0.898438H1197.15V365H1134.69ZM1207.31 0.898438H1301V52.9492H1285.51V365H1223.05V52.9492H1207.31V0.898438Z" fill="#F6EBE9"/>
</svg>
